<svg width="1080" height="28" viewBox="0 0 1080 28" fill="none" xmlns="http://www.w3.org/2000/svg">
<path d="M1066.98 14.7778L1077.7 14.7778L1077.7 12.0556L1064.3 12.0556L1064.3 28L1062 28L1062 9.72222L1077.7 9.72222L1077.7 7L1070.04 7L1070.04 4.66667L1077.7 4.66667L1077.7 -2.75951e-07L1080 -4.76837e-07L1080 28L1066.98 28L1066.98 14.7778Z" fill="#042656"/>
<path d="M13.0213 14.7779L2.29787 14.7779L2.29787 12.0557L15.7021 12.0557L15.7021 28.0001L18 28.0001L18 9.72234L2.29787 9.72234L2.29787 7.00012L9.95745 7.00012L9.95745 4.66679L2.29787 4.66679L2.29787 0.000121393L0 0.000121593L2.44784e-06 28.0001L13.0213 28.0001L13.0213 14.7779Z" fill="#042656"/>
</svg>
